<?xml version="1.0" encoding="UTF-8"?><svg id="Layer_1" xmlns="http://www.w3.org/2000/svg" width="449.09" height="447.33" viewBox="0 0 449.09 447.33"><polygon points="288.9 59.88 289.57 54.73 293.7 57.88 288.9 59.88" fill="#f9f6fc" stroke="#6b00ff44"/><polygon points="433.29 239.37 429.2 242.58 428.46 237.43 433.29 239.37" fill="#f9f6fc" stroke="#6b00ff44"/><polygon points="333.72 295.61 328.59 294.83 331.83 290.77 333.72 295.61" fill="#f9f6fc" stroke="#6b00ff44"/><polygon points="39.73 401.86 43.87 404.99 39.08 407.01 39.73 401.86" fill="#f9f6fc" stroke="#6b00ff44"/><polygon points="409.35 224.26 412.93 220.5 414.39 225.49 409.35 224.26" fill="#f9f6fc" stroke="#6b00ff44"/><polygon points="384.92 328.36 383.48 333.35 379.87 329.6 384.92 328.36" fill="#f9f6fc" stroke="#6b00ff44"/><polygon points="234.3 100.19 233.67 105.34 229.52 102.21 234.3 100.19" fill="#f9f6fc" stroke="#6b00ff44"/><polygon points="272.83 175.9 277.2 178.71 272.58 181.09 272.83 175.9" fill="#f9f6fc" stroke="#6b00ff44"/><polygon points="333.23 26.07 337.7 23.42 337.76 28.62 333.23 26.07" fill="#f9f6fc" stroke="#6b00ff44"/><polygon points="212.67 250.15 208.72 253.54 207.76 248.43 212.67 250.15" fill="#f9f6fc" stroke="#6b00ff44"/><polygon points="205.45 4.43 209.49 1.17 210.29 6.3 205.45 4.43" fill="#f9f6fc" stroke="#6b00ff44"/><polygon points="77.25 171.64 81.38 168.48 82.05 173.63 77.25 171.64" fill="#f9f6fc" stroke="#6b00ff44"/><polygon points="431.52 417.09 434.56 421.31 429.39 421.83 431.52 417.09" fill="#f9f6fc" stroke="#6b00ff44"/><polygon points="334.88 9.64 335.52 4.49 339.67 7.62 334.88 9.64" fill="#f9f6fc" stroke="#6b00ff44"/><polygon points="398.96 199.34 398.19 204.48 394.12 201.24 398.96 199.34" fill="#f9f6fc" stroke="#6b00ff44"/><polygon points="187.26 5.92 182.07 5.62 184.92 1.28 187.26 5.92" fill="#f9f6fc" stroke="#6b00ff44"/><polygon points="286.24 5.73 289.57 1.75 291.36 6.63 286.24 5.73" fill="#f9f6fc" stroke="#6b00ff44"/><polygon points="233.46 204.48 237.72 207.45 233.01 209.66 233.46 204.48" fill="#f9f6fc" stroke="#6b00ff44"/><polygon points="204.73 405.36 202.67 400.59 207.83 401.18 204.73 405.36" fill="#f9f6fc" stroke="#6b00ff44"/><polygon points="279.34 182.49 274.15 182.61 276.64 178.05 279.34 182.49" fill="#f9f6fc" stroke="#6b00ff44"/><polygon points="299.44 244.37 304.26 242.4 303.55 247.55 299.44 244.37" fill="#f9f6fc" stroke="#6b00ff44"/><polygon points="131.1 12.69 129.52 17.63 126.02 13.79 131.1 12.69" fill="#f9f6fc" stroke="#6b00ff44"/><polygon points="381.1 92.19 379.62 97.17 376.04 93.4 381.1 92.19" fill="#f9f6fc" stroke="#6b00ff44"/><polygon points="157.09 67.56 153.73 71.52 151.98 66.63 157.09 67.56" fill="#f9f6fc" stroke="#6b00ff44"/><polygon points="100.68 4.42 104.02 8.4 98.91 9.31 100.68 4.42" fill="#f9f6fc" stroke="#6b00ff44"/><polygon points="63.56 21.97 68.61 23.18 65.04 26.95 63.56 21.97" fill="#f9f6fc" stroke="#6b00ff44"/><polygon points="59.6 43.11 62.78 47.22 57.64 47.93 59.6 43.11" fill="#f9f6fc" stroke="#6b00ff44"/><polygon points="129.7 2.79 127.1 7.29 124.5 2.79 129.7 2.79" fill="#f9f6fc" stroke="#6b00ff44"/><polygon points="308.88 25.44 303.9 26.9 305.12 21.86 308.88 25.44" fill="#f9f6fc" stroke="#6b00ff44"/><polygon points="212.77 2.53 214.84 7.29 209.68 6.7 212.77 2.53" fill="#f9f6fc" stroke="#6b00ff44"/><polygon points="282.63 66.02 280.99 70.95 277.54 67.06 282.63 66.02" fill="#f9f6fc" stroke="#6b00ff44"/><polygon points="320.11 13.47 315.24 11.66 319.24 8.35 320.11 13.47" fill="#f9f6fc" stroke="#6b00ff44"/><polygon points="368.68 51.52 372.14 47.64 373.77 52.58 368.68 51.52" fill="#f9f6fc" stroke="#6b00ff44"/><polygon points="330.46 334.22 325.29 333.79 328.25 329.52 330.46 334.22" fill="#f9f6fc" stroke="#6b00ff44"/><polygon points="67.14 227.06 68.58 222.06 72.18 225.81 67.14 227.06" fill="#f9f6fc" stroke="#6b00ff44"/><polygon points="289.97 10.02 291.42 5.03 295.01 8.79 289.97 10.02" fill="#f9f6fc" stroke="#6b00ff44"/><polygon points="220.94 24.58 226.08 23.82 224.17 28.65 220.94 24.58" fill="#f9f6fc" stroke="#6b00ff44"/><polygon points="337.51 184.75 341.66 181.62 342.3 186.78 337.51 184.75" fill="#f9f6fc" stroke="#6b00ff44"/><polygon points="148.94 409.86 144.26 412.12 144.64 406.94 148.94 409.86" fill="#f9f6fc" stroke="#6b00ff44"/><polygon points="220.26 147.02 218.35 142.18 223.49 142.94 220.26 147.02" fill="#f9f6fc" stroke="#6b00ff44"/><polygon points="325.45 350.35 330.5 351.58 326.91 355.34 325.45 350.35" fill="#f9f6fc" stroke="#6b00ff44"/><polygon points="74.16 5.81 79.11 4.24 77.99 9.32 74.16 5.81" fill="#f9f6fc" stroke="#6b00ff44"/><polygon points="440.83 1.27 442.93 6.02 437.76 5.46 440.83 1.27" fill="#f9f6fc" stroke="#6b00ff44"/><polygon points="407.2 18.48 410.49 22.51 405.36 23.34 407.2 18.48" fill="#f9f6fc" stroke="#6b00ff44"/><polygon points="23.13 47.59 22.42 52.74 18.32 49.55 23.13 47.59" fill="#f9f6fc" stroke="#6b00ff44"/><polygon points="50.97 159.02 50.56 153.85 55.25 156.08 50.97 159.02" fill="#f9f6fc" stroke="#6b00ff44"/><polygon points="142.51 28.62 143.37 33.75 138.5 31.92 142.51 28.62" fill="#f9f6fc" stroke="#6b00ff44"/><polygon points="208.19 10.39 203.79 13.16 203.6 7.97 208.19 10.39" fill="#f9f6fc" stroke="#6b00ff44"/><polygon points="44.17 14.85 43.33 9.73 48.19 11.56 44.17 14.85" fill="#f9f6fc" stroke="#6b00ff44"/><polygon points="165.22 21.53 161.2 24.82 160.36 19.69 165.22 21.53" fill="#f9f6fc" stroke="#6b00ff44"/><polygon points="248.65 292.56 246.26 297.17 243.46 292.79 248.65 292.56" fill="#f9f6fc" stroke="#6b00ff44"/><polygon points="51.62 40.7 55.68 43.94 50.84 45.83 51.62 40.7" fill="#f9f6fc" stroke="#6b00ff44"/><polygon points="360.36 151.21 355.16 151.25 357.73 146.73 360.36 151.21" fill="#f9f6fc" stroke="#6b00ff44"/><polygon points="255.02 7.01 252.79 2.32 257.97 2.73 255.02 7.01" fill="#f9f6fc" stroke="#6b00ff44"/><polygon points="317.67 218.81 317.21 213.64 321.92 215.82 317.67 218.81" fill="#f9f6fc" stroke="#6b00ff44"/><polygon points="191.23 50.14 186.23 51.55 187.51 46.51 191.23 50.14" fill="#f9f6fc" stroke="#6b00ff44"/><polygon points="132.02 37.34 133.03 42.44 128.11 40.76 132.02 37.34" fill="#f9f6fc" stroke="#6b00ff44"/><polygon points="184.96 77.6 190.08 76.73 188.27 81.6 184.96 77.6" fill="#f9f6fc" stroke="#6b00ff44"/><polygon points="371.64 84.49 371.08 79.32 375.83 81.42 371.64 84.49" fill="#f9f6fc" stroke="#6b00ff44"/><polygon points="106.4 12.37 108.17 7.49 111.51 11.46 106.4 12.37" fill="#f9f6fc" stroke="#6b00ff44"/><polygon points="283.75 423.14 287.89 426.27 283.1 428.29 283.75 423.14" fill="#f9f6fc" stroke="#6b00ff44"/><polygon points="212.71 434.34 208.5 437.38 207.97 432.21 212.71 434.34" fill="#f9f6fc" stroke="#6b00ff44"/><polygon points="264.6 371 269.39 368.98 268.74 374.14 264.6 371" fill="#f9f6fc" stroke="#6b00ff44"/><polygon points="425.08 6.63 427.14 11.4 421.98 10.8 425.08 6.63" fill="#f9f6fc" stroke="#6b00ff44"/><polygon points="221.69 431.18 216.68 432.58 217.97 427.55 221.69 431.18" fill="#f9f6fc" stroke="#6b00ff44"/><polygon points="123.08 57.52 124 62.63 119.11 60.87 123.08 57.52" fill="#f9f6fc" stroke="#6b00ff44"/><polygon points="329.43 7.24 334.48 6.02 333.01 11 329.43 7.24" fill="#f9f6fc" stroke="#6b00ff44"/><polygon points="427.35 147.11 424.58 151.51 422.16 146.91 427.35 147.11" fill="#f9f6fc" stroke="#6b00ff44"/><polygon points="142.23 8.63 137.37 6.8 141.39 3.51 142.23 8.63" fill="#f9f6fc" stroke="#6b00ff44"/><polygon points="244.41 49.86 242.2 45.15 247.38 45.59 244.41 49.86" fill="#f9f6fc" stroke="#6b00ff44"/><polygon points="77.08 9.12 76.22 3.99 81.09 5.81 77.08 9.12" fill="#f9f6fc" stroke="#6b00ff44"/><polygon points="209.97 9.88 214.22 12.86 209.51 15.05 209.97 9.88" fill="#f9f6fc" stroke="#6b00ff44"/><polygon points="116.27 156.08 117.09 150.95 121.12 154.22 116.27 156.08" fill="#f9f6fc" stroke="#6b00ff44"/><polygon points="286.56 133.39 290.08 129.57 291.63 134.53 286.56 133.39" fill="#f9f6fc" stroke="#6b00ff44"/><polygon points="48.68 396.15 46.07 391.66 51.27 391.64 48.68 396.15" fill="#f9f6fc" stroke="#6b00ff44"/><polygon points="60.88 230.28 59.09 235.16 55.76 231.18 60.88 230.28" fill="#f9f6fc" stroke="#6b00ff44"/><polygon points="243.74 16.79 245.19 11.8 248.78 15.55 243.74 16.79" fill="#f9f6fc" stroke="#6b00ff44"/><polygon points="231.11 10 233.01 5.16 236.25 9.23 231.11 10" fill="#f9f6fc" stroke="#6b00ff44"/><polygon points="254.34 99.71 252.92 94.71 257.96 95.98 254.34 99.71" fill="#f9f6fc" stroke="#6b00ff44"/><polygon points="105.23 1.61 104.59 6.77 100.44 3.64 105.23 1.61" fill="#f9f6fc" stroke="#6b00ff44"/><polygon points="4.21 28.12 7.4 24.03 9.35 28.84 4.21 28.12" fill="#f9f6fc" stroke="#6b00ff44"/><polygon points="93.82 43.56 97.48 47.25 92.45 48.57 93.82 43.56" fill="#f9f6fc" stroke="#6b00ff44"/><polygon points="342.76 40.11 344.63 44.96 339.5 44.15 342.76 40.11" fill="#f9f6fc" stroke="#6b00ff44"/><polygon points="297.63 9.52 295.96 4.6 301.06 5.62 297.63 9.52" fill="#f9f6fc" stroke="#6b00ff44"/><polygon points="169.32 21.05 164.61 23.25 165.07 18.07 169.32 21.05" fill="#f9f6fc" stroke="#6b00ff44"/><polygon points="176.03 60.16 171.8 57.15 176.53 54.99 176.03 60.16" fill="#f9f6fc" stroke="#6b00ff44"/><polygon points="59.56 4.54 54.93 6.9 55.2 1.71 59.56 4.54" fill="#f9f6fc" stroke="#6b00ff44"/><polygon points="301.15 5.61 295.99 6.27 298 1.48 301.15 5.61" fill="#f9f6fc" stroke="#6b00ff44"/><polygon points="291.31 252.31 296.5 251.99 294.18 256.64 291.31 252.31" fill="#f9f6fc" stroke="#6b00ff44"/><polygon points="199.33 22.15 195.51 25.66 194.37 20.59 199.33 22.15" fill="#f9f6fc" stroke="#6b00ff44"/><polygon points="75.66 189.33 73.32 184.7 78.5 184.98 75.66 189.33" fill="#f9f6fc" stroke="#6b00ff44"/><polygon points="260.32 274.88 256.63 271.23 261.64 269.85 260.32 274.88" fill="#f9f6fc" stroke="#6b00ff44"/><polygon points="405.77 192.54 410.65 194.32 406.67 197.66 405.77 192.54" fill="#f9f6fc" stroke="#6b00ff44"/><polygon points="176.23 291.27 174.98 296.31 171.24 292.71 176.23 291.27" fill="#f9f6fc" stroke="#6b00ff44"/><polygon points="319.86 1.14 323.85 4.46 318.98 6.26 319.86 1.14" fill="#f9f6fc" stroke="#6b00ff44"/><polygon points="11.75 242.52 7.77 245.85 6.87 240.73 11.75 242.52" fill="#f9f6fc" stroke="#6b00ff44"/><polygon points="443.46 197.66 443.74 192.48 448.09 195.31 443.46 197.66" fill="#f9f6fc" stroke="#6b00ff44"/><polygon points="402.36 74.15 397.21 74.86 399.17 70.05 402.36 74.15" fill="#f9f6fc" stroke="#6b00ff44"/><polygon points="190.54 9.68 195.42 11.45 191.45 14.8 190.54 9.68" fill="#f9f6fc" stroke="#6b00ff44"/><polygon points="189.1 5.47 184 6.42 185.73 1.52 189.1 5.47" fill="#f9f6fc" stroke="#6b00ff44"/><polygon points="333.88 313.59 329.95 310.19 334.86 308.49 333.88 313.59" fill="#f9f6fc" stroke="#6b00ff44"/><polygon points="35.55 128.93 31.24 131.84 30.88 126.65 35.55 128.93" fill="#f9f6fc" stroke="#6b00ff44"/><polygon points="320.65 2.1 325.79 2.87 322.56 6.93 320.65 2.1" fill="#f9f6fc" stroke="#6b00ff44"/><polygon points="179.5 68.28 177.2 63.61 182.39 63.96 179.5 68.28" fill="#f9f6fc" stroke="#6b00ff44"/><polygon points="215.44 347.6 211.79 343.91 216.81 342.59 215.44 347.6" fill="#f9f6fc" stroke="#6b00ff44"/><polygon points="197.05 5.34 200.07 1.11 202.23 5.84 197.05 5.34" fill="#f9f6fc" stroke="#6b00ff44"/><polygon points="301.76 211.5 300.98 216.64 296.92 213.39 301.76 211.5" fill="#f9f6fc" stroke="#6b00ff44"/><polygon points="58.19 278.22 60.5 282.88 55.31 282.55 58.19 278.22" fill="#f9f6fc" stroke="#6b00ff44"/><polygon points="277.41 115.85 279.09 110.93 282.51 114.84 277.41 115.85" fill="#f9f6fc" stroke="#6b00ff44"/><polygon points="147.5 44.7 152.65 45.4 149.47 49.51 147.5 44.7" fill="#f9f6fc" stroke="#6b00ff44"/><polygon points="243.87 317.21 249.02 316.53 247.03 321.33 243.87 317.21" fill="#f9f6fc" stroke="#6b00ff44"/><polygon points="417.72 11.07 413.4 8.18 418.06 5.89 417.72 11.07" fill="#f9f6fc" stroke="#6b00ff44"/><polygon points="85.64 321.46 84.83 326.59 80.79 323.32 85.64 321.46" fill="#f9f6fc" stroke="#6b00ff44"/><polygon points="158.43 3.37 156.14 8.04 153.24 3.73 158.43 3.37" fill="#f9f6fc" stroke="#6b00ff44"/><polygon points="419.35 314.45 424 316.78 419.66 319.63 419.35 314.45" fill="#f9f6fc" stroke="#6b00ff44"/><polygon points="366.15 8.18 365.83 13.37 361.5 10.49 366.15 8.18" fill="#f9f6fc" stroke="#6b00ff44"/><polygon points="74.84 16.47 75.43 11.31 79.61 14.41 74.84 16.47" fill="#f9f6fc" stroke="#6b00ff44"/><polygon points="39.51 3.01 36.28 7.08 34.37 2.25 39.51 3.01" fill="#f9f6fc" stroke="#6b00ff44"/><polygon points="290.99 88.74 286.3 90.98 286.7 85.8 290.99 88.74" fill="#f9f6fc" stroke="#6b00ff44"/><polygon points="386.71 318.42 381.57 319.16 383.5 314.33 386.71 318.42" fill="#f9f6fc" stroke="#6b00ff44"/><polygon points="167.63 6.68 163.39 3.68 168.12 1.51 167.63 6.68" fill="#f9f6fc" stroke="#6b00ff44"/><polygon points="18.74 39.53 19.88 34.46 23.7 37.98 18.74 39.53" fill="#f9f6fc" stroke="#6b00ff44"/><polygon points="170.98 92.14 175.93 90.56 174.82 95.64 170.98 92.14" fill="#f9f6fc" stroke="#6b00ff44"/><polygon points="148.92 11.69 148.01 16.8 144.04 13.46 148.92 11.69" fill="#f9f6fc" stroke="#6b00ff44"/><polygon points="114.96 427.58 113.87 422.5 118.81 424.09 114.96 427.58" fill="#f9f6fc" stroke="#6b00ff44"/><polygon points="133.69 5.1 137.84 8.23 133.06 10.26 133.69 5.1" fill="#f9f6fc" stroke="#6b00ff44"/><polygon points="382.98 71.38 387.02 74.65 382.17 76.51 382.98 71.38" fill="#f9f6fc" stroke="#6b00ff44"/><polygon points="91.82 330.93 97 330.44 94.83 335.17 91.82 330.93" fill="#f9f6fc" stroke="#6b00ff44"/><polygon points="207.02 2.3 212.2 2.66 209.3 6.97 207.02 2.3" fill="#f9f6fc" stroke="#6b00ff44"/><polygon points="347.93 1.55 352.7 3.61 348.53 6.71 347.93 1.55" fill="#f9f6fc" stroke="#6b00ff44"/><polygon points="30.93 52.97 36.12 52.82 33.66 57.39 30.93 52.97" fill="#f9f6fc" stroke="#6b00ff44"/><polygon points="66 3.81 67.42 8.81 62.38 7.54 66 3.81" fill="#f9f6fc" stroke="#6b00ff44"/><polygon points="70.45 14.28 66.97 10.42 72.05 9.34 70.45 14.28" fill="#f9f6fc" stroke="#6b00ff44"/><polygon points="22.07 204.48 20.73 209.5 17.05 205.83 22.07 204.48" fill="#f9f6fc" stroke="#6b00ff44"/><polygon points="347.25 37.48 345.36 32.64 350.5 33.42 347.25 37.48" fill="#f9f6fc" stroke="#6b00ff44"/><polygon points="308.02 75.03 313.02 73.61 311.75 78.65 308.02 75.03" fill="#f9f6fc" stroke="#6b00ff44"/><polygon points="117.63 168.35 120.18 172.88 114.98 172.82 117.63 168.35" fill="#f9f6fc" stroke="#6b00ff44"/><polygon points="193.88 134.58 198.87 136.03 195.11 139.63 193.88 134.58" fill="#f9f6fc" stroke="#6b00ff44"/><polygon points="416.01 39.19 421.07 40.38 417.51 44.17 416.01 39.19" fill="#f9f6fc" stroke="#6b00ff44"/><polygon points="409.42 46.47 412.59 50.58 407.44 51.27 409.42 46.47" fill="#f9f6fc" stroke="#6b00ff44"/><polygon points="97.27 8.04 93.51 4.44 98.5 2.99 97.27 8.04" fill="#f9f6fc" stroke="#6b00ff44"/><polygon points="255.19 58.1 250.73 60.77 250.65 55.57 255.19 58.1" fill="#f9f6fc" stroke="#6b00ff44"/><polygon points="141.99 201.68 137.09 199.95 141.03 196.57 141.99 201.68" fill="#f9f6fc" stroke="#6b00ff44"/><polygon points="249.77 1.27 254.11 4.13 249.46 6.46 249.77 1.27" fill="#f9f6fc" stroke="#6b00ff44"/><polygon points="166.12 27.81 171.28 28.38 168.21 32.57 166.12 27.81" fill="#f9f6fc" stroke="#6b00ff44"/><polygon points="158.19 126.6 154.62 130.37 153.14 125.39 158.19 126.6" fill="#f9f6fc" stroke="#6b00ff44"/><polygon points="150.36 3.22 153.59 7.3 148.45 8.05 150.36 3.22" fill="#f9f6fc" stroke="#6b00ff44"/><polygon points="154.21 62.48 156.26 57.7 159.37 61.86 154.21 62.48" fill="#f9f6fc" stroke="#6b00ff44"/><polygon points="262.11 86.85 258.57 90.66 257.04 85.69 262.11 86.85" fill="#f9f6fc" stroke="#6b00ff44"/><polygon points="160.73 18.7 157.76 22.96 155.55 18.26 160.73 18.7" fill="#f9f6fc" stroke="#6b00ff44"/><polygon points="309.16 401.78 305.05 404.95 304.36 399.8 309.16 401.78" fill="#f9f6fc" stroke="#6b00ff44"/><polygon points="41.05 39.83 41.73 34.68 45.85 37.85 41.05 39.83" fill="#f9f6fc" stroke="#6b00ff44"/><polygon points="326.71 26.72 325.94 31.86 321.88 28.62 326.71 26.72" fill="#f9f6fc" stroke="#6b00ff44"/><polygon points="287.75 6.77 287.36 1.58 292.05 3.83 287.75 6.77" fill="#f9f6fc" stroke="#6b00ff44"/><polygon points="99.4 390.17 103.89 392.8 99.37 395.37 99.4 390.17" fill="#f9f6fc" stroke="#6b00ff44"/><polygon points="413.66 48.09 414.62 42.98 418.56 46.37 413.66 48.09" fill="#f9f6fc" stroke="#6b00ff44"/><polygon points="200.38 211.6 203.72 207.62 205.49 212.51 200.38 211.6" fill="#f9f6fc" stroke="#6b00ff44"/><polygon points="114.44 102.89 109.26 103.33 111.47 98.63 114.44 102.89" fill="#f9f6fc" stroke="#6b00ff44"/><polygon points="91.22 295.58 88.61 300.07 86.03 295.56 91.22 295.58" fill="#f9f6fc" stroke="#6b00ff44"/><polygon points="12.78 45.16 7.6 44.79 10.51 40.48 12.78 45.16" fill="#f9f6fc" stroke="#6b00ff44"/><polygon points="67.93 58.94 72.75 60.89 68.65 64.09 67.93 58.94" fill="#f9f6fc" stroke="#6b00ff44"/><polygon points="28.07 3.21 33.2 2.37 31.37 7.23 28.07 3.21" fill="#f9f6fc" stroke="#6b00ff44"/><polygon points="254.31 420.58 259.36 419.38 257.88 424.36 254.31 420.58" fill="#f9f6fc" stroke="#6b00ff44"/><polygon points="189.29 278.35 184.66 280.71 184.93 275.53 189.29 278.35" fill="#f9f6fc" stroke="#6b00ff44"/><polygon points="408.85 22.24 403.75 23.22 405.45 18.31 408.85 22.24" fill="#f9f6fc" stroke="#6b00ff44"/><polygon points="251.94 14.08 250.52 9.08 255.56 10.35 251.94 14.08" fill="#f9f6fc" stroke="#6b00ff44"/><polygon points="439.73 6.8 438.71 1.7 443.63 3.36 439.73 6.8" fill="#f9f6fc" stroke="#6b00ff44"/><polygon points="20.16 201.64 15.7 198.98 20.24 196.45 20.16 201.64" fill="#f9f6fc" stroke="#6b00ff44"/><polygon points="234.51 85.37 230.79 81.75 235.79 80.33 234.51 85.37" fill="#f9f6fc" stroke="#6b00ff44"/><polygon points="331.34 3.02 330.34 8.12 326.42 4.7 331.34 3.02" fill="#f9f6fc" stroke="#6b00ff44"/><polygon points="347.09 220.67 341.91 221.06 344.16 216.38 347.09 220.67" fill="#f9f6fc" stroke="#6b00ff44"/><polygon points="144.22 8.5 140.4 4.97 145.36 3.43 144.22 8.5" fill="#f9f6fc" stroke="#6b00ff44"/><polygon points="72.63 19.35 67.51 20.25 69.29 15.37 72.63 19.35" fill="#f9f6fc" stroke="#6b00ff44"/><polygon points="98.72 9.8 95 6.17 100 4.76 98.72 9.8" fill="#f9f6fc" stroke="#6b00ff44"/><polygon points="360.38 274.21 359.99 269.03 364.67 271.28 360.38 274.21" fill="#f9f6fc" stroke="#6b00ff44"/><polygon points="437.86 109.29 432.77 110.35 434.4 105.42 437.86 109.29" fill="#f9f6fc" stroke="#6b00ff44"/><polygon points="310.16 3.02 314.95 5.04 310.8 8.17 310.16 3.02" fill="#f9f6fc" stroke="#6b00ff44"/><polygon points="433.51 106.53 436.45 110.82 431.26 111.21 433.51 106.53" fill="#f9f6fc" stroke="#6b00ff44"/><polygon points="184.17 22.21 187.13 17.94 189.35 22.64 184.17 22.21" fill="#f9f6fc" stroke="#6b00ff44"/><polygon points="257.8 11.41 253.74 14.64 252.97 9.5 257.8 11.41" fill="#f9f6fc" stroke="#6b00ff44"/><polygon points="418.26 48.34 416.57 53.25 413.16 49.33 418.26 48.34" fill="#f9f6fc" stroke="#6b00ff44"/><polygon points="412.48 7.84 412.71 13.03 408.1 10.64 412.48 7.84" fill="#f9f6fc" stroke="#6b00ff44"/><polygon points="295.51 31.91 291.35 35.04 290.73 29.88 295.51 31.91" fill="#f9f6fc" stroke="#6b00ff44"/><polygon points="155.98 6.04 150.81 6.56 152.95 1.82 155.98 6.04" fill="#f9f6fc" stroke="#6b00ff44"/><polygon points="338.16 23.95 333.05 23.02 336.41 19.06 338.16 23.95" fill="#f9f6fc" stroke="#6b00ff44"/><polygon points="111.48 322.38 111.57 327.57 107.02 325.06 111.48 322.38" fill="#f9f6fc" stroke="#6b00ff44"/><polygon points="51.29 111.78 56.48 111.48 54.15 116.12 51.29 111.78" fill="#f9f6fc" stroke="#6b00ff44"/><polygon points="162.28 163.87 159.17 168.03 157.12 163.26 162.28 163.87" fill="#f9f6fc" stroke="#6b00ff44"/><polygon points="52.71 64.8 57.91 64.67 55.41 69.23 52.71 64.8" fill="#f9f6fc" stroke="#6b00ff44"/><polygon points="6.83 167.78 8.42 172.73 3.34 171.63 6.83 167.78" fill="#f9f6fc" stroke="#6b00ff44"/><polygon points="99.27 37.66 99.62 32.48 103.94 35.38 99.27 37.66" fill="#f9f6fc" stroke="#6b00ff44"/><polygon points="404.06 260.91 402.31 256.02 407.42 256.95 404.06 260.91" fill="#f9f6fc" stroke="#6b00ff44"/><polygon points="280.03 142.2 275.62 144.96 275.44 139.76 280.03 142.2" fill="#f9f6fc" stroke="#6b00ff44"/><polygon points="112.02 426.17 111.55 421 116.27 423.18 112.02 426.17" fill="#f9f6fc" stroke="#6b00ff44"/><polygon points="105.48 60.77 102.96 56.23 108.16 56.32 105.48 60.77" fill="#f9f6fc" stroke="#6b00ff44"/><polygon points="316.34 130.49 321.33 131.94 317.58 135.54 316.34 130.49" fill="#f9f6fc" stroke="#6b00ff44"/><polygon points="308.37 125.19 313.56 125.49 310.71 129.84 308.37 125.19" fill="#f9f6fc" stroke="#6b00ff44"/><polygon points="290.29 62.38 294.84 64.9 290.38 67.57 290.29 62.38" fill="#f9f6fc" stroke="#6b00ff44"/><polygon points="236.59 203.87 238.97 208.48 233.78 208.24 236.59 203.87" fill="#f9f6fc" stroke="#6b00ff44"/><polygon points="432.7 2.69 432.11 7.85 427.93 4.76 432.7 2.69" fill="#f9f6fc" stroke="#6b00ff44"/><polygon points="187.56 2.29 192.75 2.63 189.86 6.95 187.56 2.29" fill="#f9f6fc" stroke="#6b00ff44"/><polygon points="143.71 6.24 144.89 1.18 148.68 4.73 143.71 6.24" fill="#f9f6fc" stroke="#6b00ff44"/><polygon points="426.75 30.08 423.28 26.21 428.36 25.14 426.75 30.08" fill="#f9f6fc" stroke="#6b00ff44"/><polygon points="180.81 291.96 177.96 296.3 175.62 291.66 180.81 291.96" fill="#f9f6fc" stroke="#6b00ff44"/><polygon points="43.25 247.41 47.14 250.85 42.21 252.5 43.25 247.41" fill="#f9f6fc" stroke="#6b00ff44"/><polygon points="432.24 429.17 434.79 424.64 437.43 429.11 432.24 429.17" fill="#f9f6fc" stroke="#6b00ff44"/><polygon points="36.98 6.94 34.93 2.17 40.09 2.77 36.98 6.94" fill="#f9f6fc" stroke="#6b00ff44"/><polygon points="92.34 18.88 95.6 22.93 90.46 23.73 92.34 18.88" fill="#f9f6fc" stroke="#6b00ff44"/><polygon points="423.27 17.88 423.17 12.68 427.72 15.2 423.27 17.88" fill="#f9f6fc" stroke="#6b00ff44"/><polygon points="412.35 312.29 410.38 307.48 415.53 308.17 412.35 312.29" fill="#f9f6fc" stroke="#6b00ff44"/><polygon points="147.85 38.93 147.35 33.76 152.08 35.91 147.85 38.93" fill="#f9f6fc" stroke="#6b00ff44"/><polygon points="232.37 150.29 233.03 145.13 237.16 148.28 232.37 150.29" fill="#f9f6fc" stroke="#6b00ff44"/><polygon points="97.49 25.64 101.99 23.04 101.99 28.24 97.49 25.64" fill="#f9f6fc" stroke="#6b00ff44"/><polygon points="321.96 308.03 322.75 313.17 317.9 311.28 321.96 308.03" fill="#f9f6fc" stroke="#6b00ff44"/><polygon points="396.88 6.69 392.66 3.66 397.39 1.52 396.88 6.69" fill="#f9f6fc" stroke="#6b00ff44"/><polygon points="426.94 232.91 421.84 231.87 425.29 227.98 426.94 232.91" fill="#f9f6fc" stroke="#6b00ff44"/><polygon points="374.2 4.24 379.37 4.75 376.35 8.97 374.2 4.24" fill="#f9f6fc" stroke="#6b00ff44"/><polygon points="326.97 45.47 325.38 50.41 321.89 46.56 326.97 45.47" fill="#f9f6fc" stroke="#6b00ff44"/><polygon points="153.71 290.43 150.01 286.79 155.01 285.4 153.71 290.43" fill="#f9f6fc" stroke="#6b00ff44"/><polygon points="355.8 47.14 360.09 44.2 360.5 49.38 355.8 47.14" fill="#f9f6fc" stroke="#6b00ff44"/><polygon points="409.4 174.29 411.4 169.49 414.55 173.62 409.4 174.29" fill="#f9f6fc" stroke="#6b00ff44"/><polygon points="7.47 31.34 2.94 33.88 3 28.68 7.47 31.34" fill="#f9f6fc" stroke="#6b00ff44"/><polygon points="406.29 194.78 408.97 190.33 411.49 194.88 406.29 194.78" fill="#f9f6fc" stroke="#6b00ff44"/><polygon points="357.62 96.2 362.8 96.55 359.91 100.87 357.62 96.2" fill="#f9f6fc" stroke="#6b00ff44"/><polygon points="344.42 64.55 345.94 69.52 340.88 68.35 344.42 64.55" fill="#f9f6fc" stroke="#6b00ff44"/><polygon points="100.17 21.22 95.88 24.15 95.49 18.97 100.17 21.22" fill="#f9f6fc" stroke="#6b00ff44"/><polygon points="235.97 1.15 239.99 4.45 235.13 6.28 235.97 1.15" fill="#f9f6fc" stroke="#6b00ff44"/><polygon points="28.87 262.02 24.72 258.88 29.51 256.86 28.87 262.02" fill="#f9f6fc" stroke="#6b00ff44"/><polygon points="379.86 47.7 382.75 43.38 385.05 48.04 379.86 47.7" fill="#f9f6fc" stroke="#6b00ff44"/><polygon points="344.72 120.05 346.13 115.05 349.76 118.77 344.72 120.05" fill="#f9f6fc" stroke="#6b00ff44"/><polygon points="132.89 372.98 129.53 376.93 127.78 372.04 132.89 372.98" fill="#f9f6fc" stroke="#6b00ff44"/><polygon points="48.14 39.39 52.04 42.82 47.11 44.48 48.14 39.39" fill="#f9f6fc" stroke="#6b00ff44"/><polygon points="268.77 2.25 267.93 7.38 263.91 4.09 268.77 2.25" fill="#f9f6fc" stroke="#6b00ff44"/><polygon points="229.53 18.68 225.56 22.03 224.64 16.92 229.53 18.68" fill="#f9f6fc" stroke="#6b00ff44"/><polygon points="378.42 34.02 373.25 34.46 375.45 29.76 378.42 34.02" fill="#f9f6fc" stroke="#6b00ff44"/><polygon points="334.01 50.65 338.43 47.93 338.58 53.12 334.01 50.65" fill="#f9f6fc" stroke="#6b00ff44"/><polygon points="186.93 225.49 188.21 230.53 183.21 229.12 186.93 225.49" fill="#f9f6fc" stroke="#6b00ff44"/><polygon points="95.3 64.74 99.22 61.33 100.21 66.43 95.3 64.74" fill="#f9f6fc" stroke="#6b00ff44"/><polygon points="200.52 186.8 201.64 191.87 196.69 190.31 200.52 186.8" fill="#f9f6fc" stroke="#6b00ff44"/><polygon points="418.15 12.71 418.1 17.9 413.63 15.26 418.15 12.71" fill="#f9f6fc" stroke="#6b00ff44"/><polygon points="99.8 6.35 100.93 1.27 104.76 4.79 99.8 6.35" fill="#f9f6fc" stroke="#6b00ff44"/><polygon points="47.69 4.87 51.4 1.23 52.69 6.27 47.69 4.87" fill="#f9f6fc" stroke="#6b00ff44"/><polygon points="322.57 1.21 324.43 6.06 319.3 5.25 322.57 1.21" fill="#f9f6fc" stroke="#6b00ff44"/><polygon points="140.94 64.18 145.58 66.52 141.23 69.37 140.94 64.18" fill="#f9f6fc" stroke="#6b00ff44"/><polygon points="381.22 80.79 378.02 84.89 376.07 80.07 381.22 80.79" fill="#f9f6fc" stroke="#6b00ff44"/><polygon points="286.43 39.83 281.25 39.4 284.21 35.13 286.43 39.83" fill="#f9f6fc" stroke="#6b00ff44"/><polygon points="41.55 221.45 36.82 219.31 41.04 216.28 41.55 221.45" fill="#f9f6fc" stroke="#6b00ff44"/><polygon points="208.01 15.91 203.29 13.74 207.53 10.74 208.01 15.91" fill="#f9f6fc" stroke="#6b00ff44"/><polygon points="290.8 191.47 286.11 189.23 290.39 186.29 290.8 191.47" fill="#f9f6fc" stroke="#6b00ff44"/><polygon points="340.53 31.33 344.25 27.7 345.53 32.73 340.53 31.33" fill="#f9f6fc" stroke="#6b00ff44"/><polygon points="5.41 30.02 6.23 24.88 10.26 28.16 5.41 30.02" fill="#f9f6fc" stroke="#6b00ff44"/><polygon points="151.87 27.04 157.05 27.46 154.1 31.73 151.87 27.04" fill="#f9f6fc" stroke="#6b00ff44"/><polygon points="163.41 88.55 158.82 90.98 159.01 85.79 163.41 88.55" fill="#f9f6fc" stroke="#6b00ff44"/><polygon points="353.46 16.08 358.29 17.99 354.22 21.22 353.46 16.08" fill="#f9f6fc" stroke="#6b00ff44"/><polygon points="404.01 4.76 399.01 6.19 400.28 1.15 404.01 4.76" fill="#f9f6fc" stroke="#6b00ff44"/><polygon points="420.3 188.63 425.31 190.01 421.61 193.66 420.3 188.63" fill="#f9f6fc" stroke="#6b00ff44"/><polygon points="62.92 202.19 59.95 197.93 65.12 197.48 62.92 202.19" fill="#f9f6fc" stroke="#6b00ff44"/><polygon points="284.98 81.74 284.95 86.94 280.46 84.31 284.98 81.74" fill="#f9f6fc" stroke="#6b00ff44"/><polygon points="35.54 422.34 40.55 420.97 39.23 425.99 35.54 422.34" fill="#f9f6fc" stroke="#6b00ff44"/><polygon points="5.6 241.38 1 238.97 5.39 236.19 5.6 241.38" fill="#f9f6fc" stroke="#6b00ff44"/><polygon points="78.07 86.53 75.34 90.94 72.88 86.37 78.07 86.53" fill="#f9f6fc" stroke="#6b00ff44"/><polygon points="322.97 11.39 324.47 6.41 328.03 10.19 322.97 11.39" fill="#f9f6fc" stroke="#6b00ff44"/><polygon points="33.42 6.17 38.46 4.89 37.05 9.89 33.42 6.17" fill="#f9f6fc" stroke="#6b00ff44"/><polygon points="173.39 44.59 170.57 48.96 168.2 44.34 173.39 44.59" fill="#f9f6fc" stroke="#6b00ff44"/><polygon points="361.87 5.24 366.2 2.37 366.52 7.55 361.87 5.24" fill="#f9f6fc" stroke="#6b00ff44"/><polygon points="119.31 5 122.71 1.07 124.41 5.98 119.31 5" fill="#f9f6fc" stroke="#6b00ff44"/><polygon points="446.49 260.07 441.81 262.32 442.2 257.14 446.49 260.07" fill="#f9f6fc" stroke="#6b00ff44"/><polygon points="286.31 49.52 282 46.62 286.67 44.34 286.31 49.52" fill="#f9f6fc" stroke="#6b00ff44"/><polygon points="380.25 208.29 379.09 213.36 375.29 209.82 380.25 208.29" fill="#f9f6fc" stroke="#6b00ff44"/><polygon points="200.34 142.08 198.69 147.01 195.24 143.12 200.34 142.08" fill="#f9f6fc" stroke="#6b00ff44"/><polygon points="185.76 46.25 189.96 43.18 190.52 48.35 185.76 46.25" fill="#f9f6fc" stroke="#6b00ff44"/><polygon points="138 4.29 133.53 6.94 133.48 1.74 138 4.29" fill="#f9f6fc" stroke="#6b00ff44"/><polygon points="189.3 39.84 184.1 39.92 186.63 35.38 189.3 39.84" fill="#f9f6fc" stroke="#6b00ff44"/><polygon points="170.72 118.83 173.46 123.25 168.27 123.41 170.72 118.83" fill="#f9f6fc" stroke="#6b00ff44"/><polygon points="326.7 1.01 328.47 5.89 323.36 4.98 326.7 1.01" fill="#f9f6fc" stroke="#6b00ff44"/><polygon points="14.15 41.46 14.98 46.59 10.12 44.74 14.15 41.46" fill="#f9f6fc" stroke="#6b00ff44"/><polygon points="410.87 67.68 410.51 72.86 406.2 69.96 410.87 67.68" fill="#f9f6fc" stroke="#6b00ff44"/><polygon points="288.6 9.26 287.65 14.37 283.7 10.99 288.6 9.26" fill="#f9f6fc" stroke="#6b00ff44"/><polygon points="373.26 363.53 368.62 365.86 368.92 360.67 373.26 363.53" fill="#f9f6fc" stroke="#6b00ff44"/><polygon points="149.61 7.69 147.01 12.19 144.41 7.69 149.61 7.69" fill="#f9f6fc" stroke="#6b00ff44"/><polygon points="59.88 42.51 59.09 37.37 63.93 39.25 59.88 42.51" fill="#f9f6fc" stroke="#6b00ff44"/><polygon points="388.94 358.69 391.09 353.96 394.11 358.18 388.94 358.69" fill="#f9f6fc" stroke="#6b00ff44"/><polygon points="91.59 18.16 92.6 23.25 87.68 21.58 91.59 18.16" fill="#f9f6fc" stroke="#6b00ff44"/><polygon points="177.46 5.12 172.31 5.79 174.31 .99 177.46 5.12" fill="#f9f6fc" stroke="#6b00ff44"/><polygon points="4.75 15.92 9.79 17.18 6.17 20.92 4.75 15.92" fill="#f9f6fc" stroke="#6b00ff44"/><polygon points="386.83 40.27 389.33 44.82 384.13 44.71 386.83 40.27" fill="#f9f6fc" stroke="#6b00ff44"/><polygon points="32.34 3.08 32.52 8.27 27.93 5.83 32.34 3.08" fill="#f9f6fc" stroke="#6b00ff44"/><polygon points="208.31 31.88 204.63 35.54 203.29 30.52 208.31 31.88" fill="#f9f6fc" stroke="#6b00ff44"/><polygon points="180.27 1.56 179.62 6.72 175.48 3.58 180.27 1.56" fill="#f9f6fc" stroke="#6b00ff44"/><polygon points="177.2 18.21 172.57 15.85 176.93 13.02 177.2 18.21" fill="#f9f6fc" stroke="#6b00ff44"/><polygon points="71.38 155.79 69.3 160.55 66.22 156.36 71.38 155.79" fill="#f9f6fc" stroke="#6b00ff44"/><polygon points="40.1 56.89 35.23 55.1 39.22 51.77 40.1 56.89" fill="#f9f6fc" stroke="#6b00ff44"/><polygon points="233.89 320.63 236.48 325.14 231.28 325.12 233.89 320.63" fill="#f9f6fc" stroke="#6b00ff44"/><polygon points="62.39 77.97 66.7 80.86 62.04 83.16 62.39 77.97" fill="#f9f6fc" stroke="#6b00ff44"/><polygon points="139.56 156.38 144.76 156.36 142.18 160.87 139.56 156.38" fill="#f9f6fc" stroke="#6b00ff44"/><polygon points="344.06 19.77 343.56 14.59 348.29 16.74 344.06 19.77" fill="#f9f6fc" stroke="#6b00ff44"/><polygon points="106.03 6.71 107.29 11.75 102.3 10.32 106.03 6.71" fill="#f9f6fc" stroke="#6b00ff44"/><polygon points="153.71 165.93 153.47 160.74 158.09 163.12 153.71 165.93" fill="#f9f6fc" stroke="#6b00ff44"/><polygon points="117.45 297.38 120.99 301.18 115.93 302.35 117.45 297.38" fill="#f9f6fc" stroke="#6b00ff44"/><polygon points="404.59 58.06 399.62 59.6 400.77 54.53 404.59 58.06" fill="#f9f6fc" stroke="#6b00ff44"/><polygon points="209.34 275.3 212.74 279.24 207.63 280.21 209.34 275.3" fill="#f9f6fc" stroke="#6b00ff44"/><polygon points="442.41 41.38 440.41 46.17 437.26 42.04 442.41 41.38" fill="#f9f6fc" stroke="#6b00ff44"/><polygon points="146.06 176.94 145.08 182.04 141.15 178.64 146.06 176.94" fill="#f9f6fc" stroke="#6b00ff44"/><polygon points="304.49 3.9 300.48 7.2 299.63 2.07 304.49 3.9" fill="#f9f6fc" stroke="#6b00ff44"/><polygon points="112.57 217.43 110.45 212.69 115.61 213.22 112.57 217.43" fill="#f9f6fc" stroke="#6b00ff44"/><polygon points="32.44 3.64 37.23 1.62 36.59 6.77 32.44 3.64" fill="#f9f6fc" stroke="#6b00ff44"/><polygon points="39.47 76.36 41.92 80.94 36.73 80.77 39.47 76.36" fill="#f9f6fc" stroke="#6b00ff44"/><polygon points="257.69 29.98 252.54 30.67 254.52 25.86 257.69 29.98" fill="#f9f6fc" stroke="#6b00ff44"/><polygon points="151.25 42.68 154.11 47.02 148.93 47.33 151.25 42.68" fill="#f9f6fc" stroke="#6b00ff44"/><polygon points="149.69 6.94 145.73 10.3 144.8 5.19 149.69 6.94" fill="#f9f6fc" stroke="#6b00ff44"/><polygon points="118.39 5.04 113.45 6.65 114.53 1.56 118.39 5.04" fill="#f9f6fc" stroke="#6b00ff44"/><polygon points="42.68 5.88 45.38 10.31 40.19 10.44 42.68 5.88" fill="#f9f6fc" stroke="#6b00ff44"/><polygon points="349.18 23.9 344.26 25.55 345.28 20.46 349.18 23.9" fill="#f9f6fc" stroke="#6b00ff44"/><polygon points="275.93 166.78 275.16 171.92 271.1 168.68 275.93 166.78" fill="#f9f6fc" stroke="#6b00ff44"/><polygon points="230.68 229.98 232.9 234.68 227.72 234.25 230.68 229.98" fill="#f9f6fc" stroke="#6b00ff44"/><polygon points="422.45 192.57 422.96 187.4 427.18 190.43 422.45 192.57" fill="#f9f6fc" stroke="#6b00ff44"/><polygon points="308.1 378.51 312.69 380.94 308.28 383.7 308.1 378.51" fill="#f9f6fc" stroke="#6b00ff44"/><polygon points="79.14 61.43 75.8 65.41 74.02 60.53 79.14 61.43" fill="#f9f6fc" stroke="#6b00ff44"/><polygon points="307.96 2.95 304.6 6.91 302.85 2.02 307.96 2.95" fill="#f9f6fc" stroke="#6b00ff44"/><polygon points="32.37 337.32 34.14 342.21 29.02 341.3 32.37 337.32" fill="#f9f6fc" stroke="#6b00ff44"/><polygon points="440.13 1.19 442.79 5.65 437.59 5.73 440.13 1.19" fill="#f9f6fc" stroke="#6b00ff44"/><polygon points="272.41 100.29 277.31 98.55 276.37 103.66 272.41 100.29" fill="#f9f6fc" stroke="#6b00ff44"/><polygon points="268.52 4.47 272.56 1.2 273.37 6.34 268.52 4.47" fill="#f9f6fc" stroke="#6b00ff44"/><polygon points="371.24 2.21 369.31 7.03 366.09 2.95 371.24 2.21" fill="#f9f6fc" stroke="#6b00ff44"/><polygon points="133.25 4.36 128.46 6.39 129.1 1.23 133.25 4.36" fill="#f9f6fc" stroke="#6b00ff44"/><polygon points="152.21 17.12 157.21 18.54 153.48 22.16 152.21 17.12" fill="#f9f6fc" stroke="#6b00ff44"/><polygon points="287.97 18.59 287.35 13.43 292.13 15.47 287.97 18.59" fill="#f9f6fc" stroke="#6b00ff44"/><polygon points="2.38 11.29 7.56 11.61 4.7 15.94 2.38 11.29" fill="#f9f6fc" stroke="#6b00ff44"/><polygon points="75.03 244.73 73.6 239.74 78.64 241 75.03 244.73" fill="#f9f6fc" stroke="#6b00ff44"/><polygon points="253.86 298.99 249.63 302 249.13 296.83 253.86 298.99" fill="#f9f6fc" stroke="#6b00ff44"/><polygon points="376.59 62.62 372.96 58.9 377.99 57.62 376.59 62.62" fill="#f9f6fc" stroke="#6b00ff44"/><polygon points="87.32 54.76 82.49 56.66 83.27 51.52 87.32 54.76" fill="#f9f6fc" stroke="#6b00ff44"/><polygon points="146.58 10.03 143.37 5.95 148.51 5.21 146.58 10.03" fill="#f9f6fc" stroke="#6b00ff44"/><polygon points="368.42 93.44 369.65 88.4 373.41 91.99 368.42 93.44" fill="#f9f6fc" stroke="#6b00ff44"/><polygon points="115.84 14.37 114.01 9.51 119.13 10.35 115.84 14.37" fill="#f9f6fc" stroke="#6b00ff44"/><polygon points="39.99 377.3 36.66 381.29 34.87 376.41 39.99 377.3" fill="#f9f6fc" stroke="#6b00ff44"/><polygon points="406.34 3.9 411.36 5.23 407.7 8.91 406.34 3.9" fill="#f9f6fc" stroke="#6b00ff44"/><polygon points="189.44 407.6 194.09 409.91 189.76 412.78 189.44 407.6" fill="#f9f6fc" stroke="#6b00ff44"/><polygon points="259.67 310.89 257.47 306.18 262.65 306.64 259.67 310.89" fill="#f9f6fc" stroke="#6b00ff44"/><polygon points="85.11 211.51 87.62 216.06 82.42 215.96 85.11 211.51" fill="#f9f6fc" stroke="#6b00ff44"/><polygon points="34.34 329.05 39.47 329.88 36.18 333.91 34.34 329.05" fill="#f9f6fc" stroke="#6b00ff44"/><polygon points="440.49 116.09 445.68 116.31 442.9 120.69 440.49 116.09" fill="#f9f6fc" stroke="#6b00ff44"/><polygon points="265.65 2.81 270.84 2.65 268.39 7.23 265.65 2.81" fill="#f9f6fc" stroke="#6b00ff44"/><polygon points="385.79 88.2 388.16 92.83 382.97 92.57 385.79 88.2" fill="#f9f6fc" stroke="#6b00ff44"/><polygon points="31.45 235.73 27.36 232.53 32.18 230.59 31.45 235.73" fill="#f9f6fc" stroke="#6b00ff44"/><polygon points="215.13 6.4 209.93 6.27 212.64 1.83 215.13 6.4" fill="#f9f6fc" stroke="#6b00ff44"/><polygon points="93.38 15.1 94.28 20.22 89.4 18.44 93.38 15.1" fill="#f9f6fc" stroke="#6b00ff44"/><polygon points="17.55 85.27 17.31 80.08 21.92 82.48 17.55 85.27" fill="#f9f6fc" stroke="#6b00ff44"/><polygon points="40.3 14.92 39.84 20.1 35.59 17.11 40.3 14.92" fill="#f9f6fc" stroke="#6b00ff44"/><polygon points="195.75 398.77 198.64 394.46 200.93 399.12 195.75 398.77" fill="#f9f6fc" stroke="#6b00ff44"/><polygon points="366.03 187.29 370.34 184.39 370.7 189.57 366.03 187.29" fill="#f9f6fc" stroke="#6b00ff44"/><polygon points="25.85 239.1 21.44 236.36 26.02 233.91 25.85 239.1" fill="#f9f6fc" stroke="#6b00ff44"/><polygon points="111.02 108.55 115.83 106.58 115.13 111.73 111.02 108.55" fill="#f9f6fc" stroke="#6b00ff44"/><polygon points="8.7 7.9 13.69 6.43 12.47 11.48 8.7 7.9" fill="#f9f6fc" stroke="#6b00ff44"/><polygon points="124.01 100.61 129.1 101.63 125.67 105.54 124.01 100.61" fill="#f9f6fc" stroke="#6b00ff44"/><polygon points="111.59 279.82 111.25 285 106.93 282.12 111.59 279.82" fill="#f9f6fc" stroke="#6b00ff44"/><polygon points="117.92 122.78 121.78 126.27 116.83 127.87 117.92 122.78" fill="#f9f6fc" stroke="#6b00ff44"/><polygon points="241.39 18.87 236.2 18.85 238.81 14.36 241.39 18.87" fill="#f9f6fc" stroke="#6b00ff44"/><polygon points="89.87 135.58 88.41 130.6 93.46 131.82 89.87 135.58" fill="#f9f6fc" stroke="#6b00ff44"/><polygon points="347.24 25.65 351.5 28.62 346.8 30.83 347.24 25.65" fill="#f9f6fc" stroke="#6b00ff44"/><polygon points="351.35 322.5 347.6 318.9 352.59 317.46 351.35 322.5" fill="#f9f6fc" stroke="#6b00ff44"/><polygon points="39.58 83.32 42.74 79.19 44.73 83.99 39.58 83.32" fill="#f9f6fc" stroke="#6b00ff44"/><polygon points="104.04 281.42 104.81 286.56 99.98 284.66 104.04 281.42" fill="#f9f6fc" stroke="#6b00ff44"/><polygon points="133.24 103.51 128.23 104.86 129.56 99.84 133.24 103.51" fill="#f9f6fc" stroke="#6b00ff44"/><polygon points="218.59 10.67 213.65 12.26 214.75 7.18 218.59 10.67" fill="#f9f6fc" stroke="#6b00ff44"/><polygon points="420.01 69.63 415.33 67.36 419.64 64.45 420.01 69.63" fill="#f9f6fc" stroke="#6b00ff44"/><polygon points="49.53 104.08 45.07 106.75 44.98 101.56 49.53 104.08" fill="#f9f6fc" stroke="#6b00ff44"/><polygon points="200.37 8.2 198.22 3.47 203.39 3.98 200.37 8.2" fill="#f9f6fc" stroke="#6b00ff44"/><polygon points="250.81 39.49 250.89 44.68 246.35 42.15 250.81 39.49" fill="#f9f6fc" stroke="#6b00ff44"/><polygon points="172.39 415.95 171.79 410.79 176.56 412.85 172.39 415.95" fill="#f9f6fc" stroke="#6b00ff44"/><polygon points="279.1 56.11 273.93 55.63 276.94 51.39 279.1 56.11" fill="#f9f6fc" stroke="#6b00ff44"/><polygon points="45.83 77.7 45.66 82.9 41.24 80.15 45.83 77.7" fill="#f9f6fc" stroke="#6b00ff44"/><polygon points="281.4 13.47 281.11 18.66 276.76 15.81 281.4 13.47" fill="#f9f6fc" stroke="#6b00ff44"/><polygon points="118.87 101.67 122.21 105.65 117.09 106.56 118.87 101.67" fill="#f9f6fc" stroke="#6b00ff44"/><polygon points="436.18 13.48 432.06 10.31 436.86 8.32 436.18 13.48" fill="#f9f6fc" stroke="#6b00ff44"/><polygon points="359.17 36.75 362.4 32.67 364.32 37.5 359.17 36.75" fill="#f9f6fc" stroke="#6b00ff44"/><polygon points="126.32 2.88 131.45 2.11 129.56 6.95 126.32 2.88" fill="#f9f6fc" stroke="#6b00ff44"/><polygon points="182.55 8.39 183.64 13.47 178.69 11.87 182.55 8.39" fill="#f9f6fc" stroke="#6b00ff44"/><polygon points="33.32 345.77 34.26 350.88 29.36 349.13 33.32 345.77" fill="#f9f6fc" stroke="#6b00ff44"/><polygon points="69.96 305.11 74.26 302.2 74.63 307.38 69.96 305.11" fill="#f9f6fc" stroke="#6b00ff44"/><polygon points="357.25 37.36 362.27 36.01 360.93 41.03 357.25 37.36" fill="#f9f6fc" stroke="#6b00ff44"/><polygon points="380.86 16.61 379.7 11.54 384.67 13.07 380.86 16.61" fill="#f9f6fc" stroke="#6b00ff44"/><polygon points="138.48 5.29 142.46 8.64 137.57 10.41 138.48 5.29" fill="#f9f6fc" stroke="#6b00ff44"/><polygon points="141.76 245 145.21 241.11 146.85 246.04 141.76 245" fill="#f9f6fc" stroke="#6b00ff44"/><polygon points="11.64 7.63 16.83 7.27 14.55 11.94 11.64 7.63" fill="#f9f6fc" stroke="#6b00ff44"/><polygon points="346.78 1.09 349.01 5.78 343.83 5.36 346.78 1.09" fill="#f9f6fc" stroke="#6b00ff44"/><polygon points="310.34 115.62 309.27 120.71 305.4 117.24 310.34 115.62" fill="#f9f6fc" stroke="#6b00ff44"/><polygon points="334.89 1.36 335.79 6.47 330.91 4.7 334.89 1.36" fill="#f9f6fc" stroke="#6b00ff44"/><polygon points="355.55 1.69 358.77 5.77 353.63 6.52 355.55 1.69" fill="#f9f6fc" stroke="#6b00ff44"/><polygon points="18.7 53.57 22.92 50.55 23.43 55.72 18.7 53.57" fill="#f9f6fc" stroke="#6b00ff44"/><polygon points="398.31 237.53 402.09 241.1 397.11 242.59 398.31 237.53" fill="#f9f6fc" stroke="#6b00ff44"/><polygon points="442.09 26.19 446.74 23.87 446.42 29.05 442.09 26.19" fill="#f9f6fc" stroke="#6b00ff44"/><polygon points="78.78 6.94 76.99 2.06 82.11 2.95 78.78 6.94" fill="#f9f6fc" stroke="#6b00ff44"/><polygon points="295.12 10.61 291.57 14.4 290.06 9.42 295.12 10.61" fill="#f9f6fc" stroke="#6b00ff44"/><polygon points="316.03 172.79 311.63 170.04 316.21 167.6 316.03 172.79" fill="#f9f6fc" stroke="#6b00ff44"/><polygon points="164.87 34.46 161.37 38.3 159.79 33.35 164.87 34.46" fill="#f9f6fc" stroke="#6b00ff44"/><polygon points="390.26 102.05 393.21 106.33 388.03 106.74 390.26 102.05" fill="#f9f6fc" stroke="#6b00ff44"/><polygon points="70.41 3.3 71.35 8.41 66.45 6.67 70.41 3.3" fill="#f9f6fc" stroke="#6b00ff44"/><polygon points="8.28 8.64 5.27 4.41 10.44 3.92 8.28 8.64" fill="#f9f6fc" stroke="#6b00ff44"/><polygon points="137.12 2.65 135.31 7.52 131.99 3.52 137.12 2.65" fill="#f9f6fc" stroke="#6b00ff44"/><polygon points="331.41 80.82 334.34 85.11 329.16 85.51 331.41 80.82" fill="#f9f6fc" stroke="#6b00ff44"/><polygon points="265.42 6.74 266.25 1.61 270.28 4.89 265.42 6.74" fill="#f9f6fc" stroke="#6b00ff44"/><polygon points="419.12 446.41 418.56 441.25 423.31 443.35 419.12 446.41" fill="#f9f6fc" stroke="#6b00ff44"/><polygon points="270.68 105.49 266.19 102.88 270.7 100.29 270.68 105.49" fill="#f9f6fc" stroke="#6b00ff44"/><polygon points="199.22 6.77 195.22 3.45 200.09 1.65 199.22 6.77" fill="#f9f6fc" stroke="#6b00ff44"/><polygon points="103.4 424.37 108.53 423.49 106.72 428.36 103.4 424.37" fill="#f9f6fc" stroke="#6b00ff44"/><polygon points="159.59 113.46 162.44 109.11 164.78 113.76 159.59 113.46" fill="#f9f6fc" stroke="#6b00ff44"/><polygon points="60.86 15.75 57.33 11.94 62.4 10.78 60.86 15.75" fill="#f9f6fc" stroke="#6b00ff44"/><polygon points="240.44 3.15 236.8 6.86 235.41 1.86 240.44 3.15" fill="#f9f6fc" stroke="#6b00ff44"/><polygon points="253.21 315.32 258.41 315.24 255.87 319.78 253.21 315.32" fill="#f9f6fc" stroke="#6b00ff44"/><polygon points="199.36 60.09 194.22 59.31 197.47 55.25 199.36 60.09" fill="#f9f6fc" stroke="#6b00ff44"/><polygon points="22.94 422.87 19.48 426.74 17.86 421.8 22.94 422.87" fill="#f9f6fc" stroke="#6b00ff44"/><polygon points="71.3 133.35 66.14 132.7 69.28 128.56 71.3 133.35" fill="#f9f6fc" stroke="#6b00ff44"/><polygon points="276.3 193.68 280.83 196.22 276.36 198.87 276.3 193.68" fill="#f9f6fc" stroke="#6b00ff44"/><polygon points="240.88 9.05 236.99 5.61 241.91 3.96 240.88 9.05" fill="#f9f6fc" stroke="#6b00ff44"/><polygon points="400.59 12.08 397.33 16.13 395.45 11.28 400.59 12.08" fill="#f9f6fc" stroke="#6b00ff44"/><polygon points="41.3 304.94 37.14 308.06 36.52 302.9 41.3 304.94" fill="#f9f6fc" stroke="#6b00ff44"/><polygon points="383.52 2.9 380.24 6.93 378.39 2.07 383.52 2.9" fill="#f9f6fc" stroke="#6b00ff44"/><polygon points="56.23 19.57 56.76 14.4 60.97 17.44 56.23 19.57" fill="#f9f6fc" stroke="#6b00ff44"/><polygon points="272.49 286.46 267.82 284.17 272.14 281.28 272.49 286.46" fill="#f9f6fc" stroke="#6b00ff44"/><polygon points="17.8 122.91 14.85 118.63 20.03 118.21 17.8 122.91" fill="#f9f6fc" stroke="#6b00ff44"/><polygon points="211.96 24.53 208.76 20.43 213.91 19.72 211.96 24.53" fill="#f9f6fc" stroke="#6b00ff44"/><polygon points="374.79 22.57 372.23 18.05 377.43 18.09 374.79 22.57" fill="#f9f6fc" stroke="#6b00ff44"/><polygon points="331.52 278.96 335.82 281.86 331.15 284.14 331.52 278.96" fill="#f9f6fc" stroke="#6b00ff44"/><polygon points="387.43 191.93 383.9 195.74 382.36 190.78 387.43 191.93" fill="#f9f6fc" stroke="#6b00ff44"/><polygon points="360.14 118.72 361.38 123.77 356.39 122.32 360.14 118.72" fill="#f9f6fc" stroke="#6b00ff44"/><polygon points="216.58 15.04 211.41 15.57 213.54 10.83 216.58 15.04" fill="#f9f6fc" stroke="#6b00ff44"/><polygon points="22.68 318.7 19.43 314.65 24.57 313.86 22.68 318.7" fill="#f9f6fc" stroke="#6b00ff44"/><polygon points="372.23 73.14 370.34 77.98 367.09 73.92 372.23 73.14" fill="#f9f6fc" stroke="#6b00ff44"/><polygon points="75.2 120.37 80.27 119.21 78.74 124.18 75.2 120.37" fill="#f9f6fc" stroke="#6b00ff44"/><polygon points="323.06 26.13 327.58 28.7 323.1 31.33 323.06 26.13" fill="#f9f6fc" stroke="#6b00ff44"/><polygon points="284.76 314.18 286.94 318.9 281.76 318.42 284.76 314.18" fill="#f9f6fc" stroke="#6b00ff44"/><polygon points="91.09 364.22 89.74 359.2 94.76 360.55 91.09 364.22" fill="#f9f6fc" stroke="#6b00ff44"/><polygon points="106.82 3.69 103.13 7.34 101.81 2.32 106.82 3.69" fill="#f9f6fc" stroke="#6b00ff44"/><polygon points="146.45 5.86 141.29 6.44 143.37 1.68 146.45 5.86" fill="#f9f6fc" stroke="#6b00ff44"/><polygon points="357.95 124.14 353.34 121.76 357.71 118.95 357.95 124.14" fill="#f9f6fc" stroke="#6b00ff44"/><polygon points="427.45 35.62 429.78 30.98 432.63 35.32 427.45 35.62" fill="#f9f6fc" stroke="#6b00ff44"/><polygon points="14.94 45.59 17.76 49.95 12.57 50.22 14.94 45.59" fill="#f9f6fc" stroke="#6b00ff44"/><polygon points="87.44 132.17 92.54 133.14 89.15 137.08 87.44 132.17" fill="#f9f6fc" stroke="#6b00ff44"/><polygon points="161.64 90.17 156.46 90.61 158.67 85.91 161.64 90.17" fill="#f9f6fc" stroke="#6b00ff44"/><polygon points="185.75 2.18 187.47 7.09 182.36 6.12 185.75 2.18" fill="#f9f6fc" stroke="#6b00ff44"/><polygon points="211.41 355.58 206.86 358.09 206.96 352.9 211.41 355.58" fill="#f9f6fc" stroke="#6b00ff44"/><polygon points="347.68 89.16 343.42 86.18 348.13 83.98 347.68 89.16" fill="#f9f6fc" stroke="#6b00ff44"/><polygon points="168.43 1.46 173.09 3.76 168.77 6.64 168.43 1.46" fill="#f9f6fc" stroke="#6b00ff44"/><polygon points="72.02 48.33 68.75 44.3 73.88 43.48 72.02 48.33" fill="#f9f6fc" stroke="#6b00ff44"/><polygon points="356.21 325.64 354.94 320.6 359.94 322.02 356.21 325.64" fill="#f9f6fc" stroke="#6b00ff44"/><polygon points="283.76 80.5 287.56 84.04 282.6 85.56 283.76 80.5" fill="#f9f6fc" stroke="#6b00ff44"/><polygon points="78.26 408.26 73.61 410.58 73.93 405.4 78.26 408.26" fill="#f9f6fc" stroke="#6b00ff44"/><polygon points="440.36 65.86 444.03 69.54 439.01 70.87 440.36 65.86" fill="#f9f6fc" stroke="#6b00ff44"/><polygon points="167.97 11.98 168.04 6.79 172.5 9.44 167.97 11.98" fill="#f9f6fc" stroke="#6b00ff44"/><polygon points="378.6 74.35 383.03 71.63 383.17 76.83 378.6 74.35" fill="#f9f6fc" stroke="#6b00ff44"/><polygon points="62.89 25.51 62.44 30.68 58.19 27.71 62.89 25.51" fill="#f9f6fc" stroke="#6b00ff44"/><polygon points="168.41 133.64 169.65 128.6 173.4 132.19 168.41 133.64" fill="#f9f6fc" stroke="#6b00ff44"/><polygon points="329.42 320.36 328.76 315.21 333.56 317.21 329.42 320.36" fill="#f9f6fc" stroke="#6b00ff44"/><polygon points="442.05 9.81 446.94 8.03 446.03 13.15 442.05 9.81" fill="#f9f6fc" stroke="#6b00ff44"/><polygon points="108.31 1.77 107.45 6.89 103.44 3.58 108.31 1.77" fill="#f9f6fc" stroke="#6b00ff44"/><polygon points="117.04 9.74 113.11 13.13 112.14 8.03 117.04 9.74" fill="#f9f6fc" stroke="#6b00ff44"/><polygon points="234.02 9.22 228.83 9.28 231.37 4.75 234.02 9.22" fill="#f9f6fc" stroke="#6b00ff44"/><polygon points="65.21 4.51 60.64 6.99 60.78 1.8 65.21 4.51" fill="#f9f6fc" stroke="#6b00ff44"/><polygon points="195.55 404.59 190.38 405.08 192.54 400.35 195.55 404.59" fill="#f9f6fc" stroke="#6b00ff44"/><polygon points="6.31 429.22 4.62 424.31 9.72 425.3 6.31 429.22" fill="#f9f6fc" stroke="#6b00ff44"/><polygon points="419.62 25.38 421.16 30.35 416.1 29.2 419.62 25.38" fill="#f9f6fc" stroke="#6b00ff44"/><polygon points="43.42 366.89 38.52 365.17 42.46 361.78 43.42 366.89" fill="#f9f6fc" stroke="#6b00ff44"/><polygon points="61.74 405.64 65.91 402.55 66.5 407.71 61.74 405.64" fill="#f9f6fc" stroke="#6b00ff44"/><polygon points="268.11 183.32 273.19 184.38 269.73 188.26 268.11 183.32" fill="#f9f6fc" stroke="#6b00ff44"/><polygon points="197.97 9.45 199.88 14.29 194.74 13.52 197.97 9.45" fill="#f9f6fc" stroke="#6b00ff44"/><polygon points="166.91 4.27 171.15 1.26 171.64 6.44 166.91 4.27" fill="#f9f6fc" stroke="#6b00ff44"/><polygon points="197.13 207.93 192.13 209.33 193.42 204.3 197.13 207.93" fill="#f9f6fc" stroke="#6b00ff44"/><polygon points="340.63 1 343.86 5.07 338.72 5.83 340.63 1" fill="#f9f6fc" stroke="#6b00ff44"/><polygon points="359.7 133.29 355.52 130.2 360.29 128.13 359.7 133.29" fill="#f9f6fc" stroke="#6b00ff44"/><polygon points="49.51 215.19 46.34 211.07 51.49 210.39 49.51 215.19" fill="#f9f6fc" stroke="#6b00ff44"/><polygon points="327.11 7.47 324.12 3.22 329.3 2.75 327.11 7.47" fill="#f9f6fc" stroke="#6b00ff44"/><polygon points="372.02 2.54 377.22 2.37 374.77 6.95 372.02 2.54" fill="#f9f6fc" stroke="#6b00ff44"/><polygon points="346.61 5.67 341.43 6.05 343.69 1.37 346.61 5.67" fill="#f9f6fc" stroke="#6b00ff44"/><polygon points="414.64 17.18 417.54 12.87 419.82 17.54 414.64 17.18" fill="#f9f6fc" stroke="#6b00ff44"/><polygon points="432.56 323.64 427.36 323.44 430.14 319.04 432.56 323.64" fill="#f9f6fc" stroke="#6b00ff44"/><polygon points="235.35 36.7 240.38 35.39 239 40.4 235.35 36.7" fill="#f9f6fc" stroke="#6b00ff44"/><polygon points="24.78 6.96 20.23 9.46 20.33 4.27 24.78 6.96" fill="#f9f6fc" stroke="#6b00ff44"/><polygon points="108.23 333.94 110.15 329.12 113.37 333.19 108.23 333.94" fill="#f9f6fc" stroke="#6b00ff44"/><polygon points="268.24 112.24 271.89 108.55 273.27 113.56 268.24 112.24" fill="#f9f6fc" stroke="#6b00ff44"/></svg>