<?xml version="1.0" encoding="UTF-8"?>
<svg width="18px" height="20px" viewBox="0 0 18 20" version="1.1" xmlns="http://www.w3.org/2000/svg" xmlns:xlink="http://www.w3.org/1999/xlink">
    <title>Shape</title>
    <g id="Symbols" stroke="none" stroke-width="1" fill="none" fill-rule="evenodd" fill-opacity="0.4">
        <g id="svg-card-smaller" transform="translate(-147.000000, -186.000000)" fill="#2F2F3C" fill-rule="nonzero">
            <g id="Group" transform="translate(136.000000, 176.000000)">
                <g id="trash-can-regular-copy" transform="translate(11.000000, 10.000000)">
                    <path d="M6.20608899,15.625 C6.20608899,15.96875 5.92681499,16.25 5.58548009,16.25 C5.2441452,16.25 4.96487119,15.96875 4.96487119,15.625 L4.96487119,7.5 C4.96487119,7.15625 5.2441452,6.875 5.58548009,6.875 C5.92681499,6.875 6.20608899,7.15625 6.20608899,7.5 L6.20608899,15.625 Z M9.30913349,15.625 C9.30913349,15.96875 9.02985948,16.25 8.68852459,16.25 C8.3471897,16.25 8.06791569,15.96875 8.06791569,15.625 L8.06791569,7.5 C8.06791569,7.15625 8.3471897,6.875 8.68852459,6.875 C9.02985948,6.875 9.30913349,7.15625 9.30913349,7.5 L9.30913349,15.625 Z M12.412178,15.625 C12.412178,15.96875 12.132904,16.25 11.7915691,16.25 C11.4502342,16.25 11.1709602,15.96875 11.1709602,15.625 L11.1709602,7.5 C11.1709602,7.15625 11.4502342,6.875 11.7915691,6.875 C12.132904,6.875 12.412178,7.15625 12.412178,7.5 L12.412178,15.625 Z M12.3152078,0.97421875 L13.7387295,3.125 L16.4461358,3.125 C16.962017,3.125 17.3770492,3.54492188 17.3770492,4.0625 C17.3770492,4.58203125 16.962017,5 16.4461358,5 L16.1358314,5 L16.1358314,16.875 C16.1358314,18.6015625 14.747219,20 13.0327869,20 L4.3442623,20 C2.63060597,20 1.2412178,18.6015625 1.2412178,16.875 L1.2412178,5 L0.930913349,5 C0.416971604,5 0,4.58203125 0,4.0625 C0,3.54492188 0.416971604,3.125 0.930913349,3.125 L3.63909543,3.125 L5.06184133,0.97421875 C5.46523712,0.365507812 6.1440281,0 6.86936475,0 L10.5076844,0 C11.2330211,0 11.9118121,0.365546875 12.3152078,0.97421875 L12.3152078,0.97421875 Z M5.87639052,3.125 L11.5006587,3.125 L10.7636856,2.0140625 C10.7055035,1.92734375 10.6085334,1.875 10.5076844,1.875 L6.86936475,1.875 C6.76851581,1.875 6.63663642,1.92734375 6.61336358,2.0140625 L5.87639052,3.125 Z M3.1030445,16.875 C3.1030445,17.5664062 3.65887734,18.125 4.3442623,18.125 L13.0327869,18.125 C13.7193355,18.125 14.2740047,17.5664062 14.2740047,16.875 L14.2740047,5 L3.1030445,5 L3.1030445,16.875 Z" id="Shape"></path>
                </g>
            </g>
        </g>
    </g>
</svg>