<svg xmlns="http://www.w3.org/2000/svg" width="102" height="88" viewBox="0 0 102 88">
    <g fill="none" fill-rule="evenodd" stroke-linecap="round" stroke-linejoin="round" opacity=".5">
        <g stroke="#000" stroke-width="4">
            <g>
                <g>
                    <path d="M68.15 60h10.673S98 57.486 98 38.57c0-11.984-9.84-21.836-22.072-21.388C71.148 7.034 60.903 0 49 0 33.128 0 20.188 12.478 19.261 28.199 9.32 26.11 0 33.723 0 43.925 0 60.255 17.043 60 17.043 60h12.758M50 35L50 84" transform="translate(-489 -326) translate(489 326) translate(2 2)"/>
                    <path d="M63 48L49.5 35 36 48" transform="translate(-489 -326) translate(489 326) translate(2 2)"/>
                </g>
            </g>
        </g>
    </g>
</svg>
